<?xml version="1.0" encoding="utf-8"?>
<!-- Generator: Adobe Illustrator 27.5.0, SVG Export Plug-In . SVG Version: 6.00 Build 0)  -->
<svg version="1.1" id="Capa_1" xmlns="http://www.w3.org/2000/svg" xmlns:xlink="http://www.w3.org/1999/xlink" x="0px" y="0px"
	 viewBox="0 0 425.196 425.196" style="enable-background:new 0 0 425.196 425.196;" xml:space="preserve">
<rect y="0" style="fill:#FFFFFF;" width="425.196" height="425.196"/>
<path style="fill:#999B9E;" d="M40.602,330.139l-8.586,4.023c0,0-19.168,6.289-6.502,15.563l77.406,37.274
	c0,0,20.844,11.333,45.719-2.667l244.543-148.023c0,0,23.666-12.735,11.166-15.811l-28-5.755L40.602,330.139z"/>
<g>
	<path style="fill:#0B0D10;" d="M340.514,267.752l-16.158-4.317c0,0-2.869-1.401-3.742-4.132c-2.17-9.31-3.809-14.079,0.109-23.933
		c5.865-14.745,18.469-23.575,28.148-19.726c9.68,3.852,12.772,18.924,6.91,33.668C352.139,258.475,347.043,264.782,340.514,267.752
		"/>
	<polygon style="fill:#939598;" points="144.592,117.349 144.592,268.864 243.742,306.082 243.52,155.528 	"/>
	<polygon style="fill:#D1D3D4;" points="304.352,43.607 144.592,117.349 243.52,155.528 393.182,74.446 	"/>
	<polygon style="fill:#BCBEC0;" points="393.182,74.49 243.52,155.528 243.742,306.082 393.182,214.77 	"/>
	<g>
		<path style="fill:#0B0D10;" d="M160.02,381.169l-16.16-4.318c0,0-2.869-1.401-3.74-4.132c-2.17-9.31-3.811-14.079,0.109-23.933
			c5.865-14.745,18.467-23.575,28.146-19.726c9.68,3.852,12.775,18.925,6.912,33.668
			C171.645,371.891,166.547,378.198,160.02,381.169"/>
		<path style="fill:#C8161D;" d="M67.957,245.705c-16.189,19.597-28.35,50.783-28.35,50.783s-8.664-9.066-3.922-15.686
			L67.957,245.705z"/>
		<path style="fill:#D83633;" d="M144.898,171.386c-25.629,9.634-42.348,32.639-42.348,32.639l-34.359,41.838l-27.453,33.531
			c-17.703,28.189,51.049,58.723,51.049,58.723c19.727,16.667,38.207-1.053,38.207-1.053l34.119-36.002
			c12.33-12.06,15.115-22.719,22.098-38.383c7.08-15.888,16.094-19.813,16.094-19.813c12.586-10.05,29.773-28.825,39.752-35.01
			L144.898,171.386z"/>
		<path style="fill:#FFFFFF;" d="M34.818,303.693c-0.725-6.021-0.492-11.695,0.047-16.429c-0.207-0.724-0.379-1.448-0.506-2.169
			c-0.82,5.267-1.402,12.275-0.494,19.8c2.643,5.037,6.775,10.042,11.594,14.78v-2.163C41.053,313.06,37.283,308.392,34.818,303.693
			z"/>
		<path style="fill:#D83633;" d="M242.057,207.855c-14.922,6.05-32.338,19.485-32.338,19.485
			c-8.094,4.72-16.051,21.784-16.051,21.784l-29.52,41.347c-1.906,4.552-11.727,12.124-11.727,12.124l-28.695,32.587
			c0,0-12.139,11.796-29.334,3.107c0,0-56.441-28.439-60.465-51.607c-1.898,12.202-4.906,30.947,5.504,42.15
			c0,0,24.732,27.768,65.256,42.168c0,0,23.518,11.599,46.736-5.299l90.508-59.024L242.057,207.855z"/>
		<path style="fill:#E6E7E8;" d="M236.535,295.742c-5.91,4.579-11.914,9.057-18.301,12.911c-8.293,5.003-18.688,10.372-28.656,7.829
			c-0.268-0.069-0.439-0.369-0.361-0.634c1.645-5.473,5.588-9.775,7.803-14.98c-8.152,0.483-15.768,3.533-22.658,7.843
			c-9.51,5.949-18.514,13.253-26.758,20.855c-2.914,2.689-5.85,5.416-9.082,7.728c-1.756,1.257,15.629-6.731,13.24-7.426
			c-2.598-0.756-2.236-4.267-1.977-6.328c0.516-4.11,1.924-8.169,3.645-12.018l-28.533,24.966c0,0-12.139,11.795-29.336,3.107
			c0,0-56.441-28.439-60.463-51.607c-1.9,12.202-4.908,30.947,5.504,42.15c0,0,24.73,27.767,65.254,42.168
			c0,0,23.518,11.598,46.738-5.299l83.941-56.258V295.742z"/>
		<g>
			<g>
				<path style="fill:#373A3D;" d="M236.535,217.689c-1.584,0.854-2.5,1.394-2.5,1.394c-20.367,9.389-33.748,28.956-34.227,29.7
					l-32.615,50.761l69.342-43.257V217.689z"/>
			</g>
			<path style="fill:#7AD0E2;" d="M233.223,255.056v-31.482c-19.895,9.17-31.16,26.657-31.16,26.657l-26.146,40.693L233.223,255.056
				z"/>
			<path style="fill:#7AD0E2;" d="M225.281,250.022c-3.912,0.318-8.281,0.014-11.482-2.53c-2.158-1.715-3.438-4.046-4.117-6.621
				c-4.975,5.263-7.619,9.359-7.619,9.359l-26.146,40.693l57.307-35.868v-6.675C230.629,249.195,227.98,249.802,225.281,250.022z"/>
		</g>
		<g>
			<path style="fill:#E3482B;" d="M122.943,358.967c0,0-1.592,0.151-4.372,0.314c-1.393-0.005-3.114,0.039-5.077-0.065
				c-0.979-0.071-2.019-0.146-3.115-0.226c-1.106-0.054-2.238-0.288-3.439-0.435c-0.6-0.086-1.212-0.175-1.836-0.265
				c-0.617-0.118-1.248-0.238-1.889-0.36c-1.283-0.24-2.605-0.527-3.943-0.89c-1.344-0.349-2.736-0.68-4.123-1.127
				c-1.398-0.416-2.823-0.861-4.24-1.395c-1.429-0.505-2.875-1.04-4.306-1.658c-0.72-0.298-1.445-0.599-2.173-0.901
				c-0.715-0.332-1.433-0.665-2.153-1c-2.896-1.318-5.733-2.858-8.542-4.44c-1.396-0.805-2.76-1.662-4.133-2.494
				c-1.346-0.871-2.691-1.733-3.99-2.638c-1.303-0.899-2.594-1.792-3.826-2.733c-1.252-0.916-2.465-1.848-3.637-2.793
				c-2.365-1.862-4.549-3.784-6.59-5.631c-2.048-1.839-3.908-3.661-5.578-5.386c-1.688-1.703-3.162-3.337-4.44-4.807
				c-1.294-1.455-2.354-2.785-3.224-3.878c-1.733-2.195-2.606-3.537-2.606-3.537s1.211,1.032,3.328,2.837
				c2.129,1.783,5.176,4.302,8.885,7.226c0.929,0.73,1.897,1.486,2.916,2.248c1.01,0.77,2.052,1.567,3.123,2.386
				c2.16,1.615,4.473,3.265,6.871,4.949c2.396,1.689,4.919,3.361,7.493,5.033c1.28,0.847,2.618,1.622,3.921,2.465
				c1.333,0.792,2.662,1.604,4.014,2.373c2.695,1.551,5.422,3.048,8.154,4.413c0.684,0.343,1.363,0.686,2.041,1.025
				c0.685,0.323,1.365,0.643,2.043,0.962c1.348,0.658,2.709,1.232,4.043,1.816c1.324,0.611,2.668,1.095,3.963,1.636
				c1.291,0.554,2.59,0.991,3.847,1.446c1.251,0.48,2.499,0.837,3.696,1.228c0.6,0.197,1.188,0.391,1.767,0.582
				c0.585,0.163,1.16,0.323,1.724,0.48c2.251,0.654,4.346,1.129,6.211,1.581c1.878,0.376,3.516,0.704,4.863,0.974
				C121.371,358.681,122.943,358.967,122.943,358.967z"/>
		</g>
		<g>
			<path style="fill:#E3482B;" d="M121.592,363.783c0,0-1.592,0.151-4.372,0.313c-1.394-0.005-3.115,0.039-5.077-0.065
				c-0.979-0.071-2.019-0.147-3.115-0.226c-1.106-0.054-2.238-0.288-3.439-0.436c-0.6-0.086-1.212-0.175-1.836-0.265
				c-0.617-0.118-1.248-0.238-1.889-0.36c-1.285-0.24-2.605-0.526-3.943-0.89c-1.344-0.349-2.736-0.68-4.123-1.127
				c-1.398-0.416-2.822-0.861-4.24-1.395c-1.43-0.505-2.875-1.04-4.307-1.658c-0.721-0.298-1.443-0.599-2.173-0.901
				c-0.714-0.332-1.432-0.665-2.152-1c-2.896-1.318-5.733-2.857-8.542-4.44c-1.396-0.805-2.761-1.662-4.133-2.494
				c-1.346-0.871-2.691-1.733-3.99-2.638c-1.303-0.899-2.595-1.793-3.826-2.734c-1.252-0.916-2.465-1.848-3.637-2.793
				c-2.365-1.862-4.549-3.784-6.59-5.63c-2.049-1.84-3.908-3.662-5.577-5.386c-1.688-1.703-3.163-3.338-4.441-4.807
				c-1.294-1.455-2.354-2.785-3.224-3.878c-1.732-2.195-2.605-3.537-2.605-3.537s1.211,1.032,3.328,2.837
				c2.129,1.783,5.177,4.302,8.885,7.226c0.928,0.73,1.896,1.486,2.916,2.247c1.009,0.77,2.052,1.567,3.123,2.386
				c2.16,1.615,4.473,3.265,6.871,4.949c2.397,1.689,4.918,3.361,7.493,5.033c1.28,0.847,2.618,1.622,3.921,2.465
				c1.332,0.792,2.662,1.605,4.014,2.373c2.695,1.551,5.42,3.048,8.154,4.414c0.684,0.343,1.363,0.685,2.041,1.025
				c0.684,0.323,1.365,0.644,2.043,0.962c1.348,0.658,2.709,1.231,4.043,1.815c1.324,0.611,2.668,1.095,3.963,1.636
				c1.291,0.554,2.59,0.991,3.846,1.446c1.252,0.48,2.5,0.837,3.697,1.229c0.598,0.197,1.188,0.391,1.766,0.582
				c0.586,0.163,1.161,0.323,1.725,0.48c2.251,0.654,4.346,1.129,6.211,1.581c1.878,0.376,3.516,0.704,4.863,0.974
				C120.02,363.496,121.592,363.783,121.592,363.783z"/>
		</g>
		<path style="fill:#BCBEC0;" d="M130.396,346.625l-3.334,2.354c0,0-13.064,12.696-31.574,3.344c0,0-49.83-24.952-61.623-47.428
			c-0.908-7.525-0.326-14.532,0.494-19.8c4.021,23.166,60.463,51.606,60.463,51.606c17.197,8.688,29.336-3.107,29.336-3.107
			l6.238-4.406C130.396,329.188,139.5,329.53,130.396,346.625z"/>
		<path style="fill:#FFFFFF;" d="M45.459,303.824c-5.703-6.041-10.012-12.465-11.1-18.728c-0.82,5.267-1.402,12.275-0.494,19.8
			c2.643,5.037,6.775,10.042,11.594,14.78V303.824z"/>
		<path style="fill:#FFFFFF;" d="M130.357,329.141l-6.225,4.424c0,0-12.105,11.832-29.328,3.196c0,0-0.066-0.036-0.168-0.089
			l0.047,15.262c0.533,0.288,0.834,0.447,0.834,0.447c18.537,9.296,31.564-3.44,31.564-3.44l3.328-2.364
			C139.461,329.455,130.357,329.141,130.357,329.141z"/>
		<path style="fill:#8F0507;" d="M132.584,330.005c1.068,2.262,0.988,6.61-3.439,14.983l-3.326,2.365c0,0-12.83,12.528-31.137,3.64
			l0.002,0.94c0.533,0.288,0.834,0.447,0.834,0.447c18.537,9.296,31.564-3.44,31.564-3.44l3.328-2.364
			C136.244,335.542,134.537,331.493,132.584,330.005z"/>
		<path style="fill:#A7A9AC;" d="M49.506,307.837v15.617c10.547,9.399,31.478,20.452,39.08,24.952v-15.239
			C81.063,328.721,59.756,317.431,49.506,307.837z"/>
		<polygon style="fill:#383B3E;" points="217.016,272.245 228.311,264.892 228.311,269.819 217.016,277.71 		"/>
		<g>
			<path style="fill:#383B3E;" d="M51.021,312.648c0,0,23.826,17.197,34.889,22.521v1.532c0,0-22.748-11.227-34.889-22.697V312.648z
				"/>
			<path style="fill:#383B3E;" d="M51.021,315.204c0,0,23.826,17.197,34.889,22.522v1.531c0,0-22.748-11.226-34.889-22.697V315.204z
				"/>
			<path style="fill:#383B3E;" d="M51.021,317.761c0,0,23.826,17.197,34.889,22.521v1.531c0,0-22.748-11.225-34.889-22.696V317.761z
				"/>
			<path style="fill:#383B3E;" d="M51.021,320.317c0,0,23.826,17.196,34.889,22.522v1.531c0,0-22.748-11.226-34.889-22.697V320.317z
				"/>
		</g>
		<path style="fill:#8F0507;" d="M34.818,303.693c-0.725-6.021-0.492-11.695,0.047-16.429c-0.207-0.724-0.379-1.448-0.506-2.169
			c-0.82,5.267-1.402,12.275-0.494,19.8c2.643,5.037,6.775,10.042,11.594,14.78v-2.163C41.053,313.06,37.283,308.392,34.818,303.693
			z"/>
		<path style="fill:#C8161D;" d="M68.191,245.862l-15.145,24.435c0,0-17.197,15.557,0,31.547l41.635,24.362
			c0,0,14.734,8.851,26.91,0l38.844-30.752L68.191,245.862z"/>
		<path style="fill:#7AD0E2;" d="M103.949,202.322c0,0,26.623,28.451,87.756,45.7l-31.27,47.432c0,0-71.09-6.696-92.244-49.592
			L103.949,202.322z"/>
		<path style="fill:#7AD0E2;" d="M157.693,273.414c-11.412,0.889-23.602-0.44-34.482-4.025
			c-10.887-3.586-21.355-9.942-26.988-20.273c-5.875-10.776-6.271-24.286-1.988-35.904l-26.043,32.65
			c21.154,42.896,92.244,49.592,92.244,49.592l19.043-28.888C172.971,270.699,165.408,272.813,157.693,273.414z"/>
		<polygon style="fill:#FFFFFF;" points="56.818,334.162 56.818,346.582 79.326,361.239 79.326,347.728 		"/>
		<g>
			<path style="fill:#E3482B;" d="M188.301,305.214c0,0,2.62-2.107,6.732-4.964c1.026-0.718,2.139-1.495,3.334-2.285
				c1.191-0.796,2.439-1.648,3.76-2.483c1.318-0.837,2.66-1.737,4.061-2.589c1.395-0.861,2.811-1.736,4.229-2.611
				c1.434-0.848,2.865-1.697,4.277-2.532c1.397-0.856,2.833-1.598,4.199-2.354c2.744-1.494,5.335-2.84,7.582-3.951
				c4.477-2.246,7.586-3.538,7.586-3.539c0,0-2.644,2.065-6.795,4.857c-2.068,1.408-4.512,3.001-7.16,4.656
				c-1.325,0.827-2.693,1.682-4.084,2.55c-1.395,0.861-2.813,1.735-4.23,2.61c-1.434,0.848-2.866,1.696-4.277,2.531
				c-1.406,0.843-2.824,1.614-4.18,2.391c-1.352,0.78-2.686,1.49-3.943,2.174c-1.255,0.691-2.459,1.314-3.57,1.889
				C191.381,303.876,188.301,305.214,188.301,305.214z"/>
		</g>
		<g>
			<path style="fill:#E3482B;" d="M197.963,310.57c0,0,0.537-0.449,1.504-1.189c0.967-0.74,2.357-1.78,4.063-2.963
				c0.852-0.595,1.773-1.241,2.768-1.89c0.99-0.657,2.027-1.361,3.128-2.043c1.099-0.685,2.214-1.426,3.384-2.118
				c1.164-0.701,2.348-1.413,3.529-2.124c1.198-0.687,2.395-1.374,3.574-2.05c1.179-0.676,2.367-1.292,3.502-1.915
				c2.281-1.229,4.438-2.326,6.311-3.225c1.867-0.912,3.453-1.616,4.572-2.097c1.117-0.482,1.771-0.73,1.771-0.73
				s-0.536,0.45-1.502,1.19c-0.967,0.74-2.356,1.782-4.063,2.965c-1.699,1.197-3.711,2.542-5.896,3.933
				c-1.099,0.687-2.216,1.423-3.382,2.122c-1.166,0.699-2.35,1.408-3.533,2.118c-1.199,0.685-2.398,1.369-3.578,2.043
				c-1.175,0.683-2.366,1.294-3.5,1.918c-1.133,0.627-2.254,1.189-3.311,1.732c-1.053,0.55-2.065,1.04-3,1.492
				c-1.866,0.912-3.453,1.617-4.57,2.1C198.617,310.321,197.963,310.57,197.963,310.57z"/>
		</g>
		<path style="fill:none;stroke:#BCBEC0;stroke-width:0.893;stroke-miterlimit:10;" d="M167.43,299.397c0,0-4.318,2.515,0,6.753
			c0,0,24.832-0.224,26.396,24.637"/>
		<path style="fill:none;stroke:#BCBEC0;stroke-width:0.893;stroke-miterlimit:10;" d="M193.826,330.788
			c13.24-8.869,26.635-16.906,40.234-25.793"/>
		<path style="fill:#C8161D;" d="M171.635,290.128c-3.568,1.459-5.455,1.25-5.455,1.25c-3.676,5.297,1.219,9.154,1.219,9.154
			c3.316-1.682,6.244-0.075,6.244-0.075c6.238,4.918,15.709-0.924,15.709-0.924c9.771-4.703,6.217-13.418,6.217-13.418
			c-1.199-5.472-5.936-5.405-5.936-5.405c-6.971-0.336-13.514,3.97-13.514,3.97S171.879,286.845,171.635,290.128z"/>
		<g>
			<path style="fill:#FFFFFF;" d="M106.102,208.979c0,0,0.207,0.276,0.613,0.763c0.395,0.493,1.026,1.184,1.822,2.046
				c0.407,0.422,0.857,0.89,1.349,1.399c0.522,0.481,1.058,1.023,1.64,1.588c0.566,0.578,1.254,1.122,1.927,1.731
				c0.679,0.604,1.374,1.255,2.165,1.869c0.771,0.627,1.575,1.28,2.407,1.957c0.858,0.642,1.746,1.306,2.659,1.988
				c0.892,0.701,1.859,1.36,2.85,2.029c0.996,0.662,1.969,1.392,3.009,2.066c1.05,0.66,2.118,1.33,3.2,2.009
				c0.538,0.341,1.079,0.684,1.623,1.03c0.561,0.321,1.124,0.644,1.689,0.967c2.268,1.286,4.521,2.669,6.911,3.831
				c1.171,0.621,2.343,1.242,3.51,1.86c1.177,0.601,2.382,1.141,3.558,1.712c1.184,0.558,2.353,1.124,3.504,1.693
				c1.139,0.597,2.339,1.023,3.473,1.551c2.3,0.977,4.482,2.04,6.609,2.91c2.137,0.849,4.146,1.697,6.004,2.486
				c1.854,0.804,3.576,1.481,5.113,2.067c1.536,0.583,2.863,1.143,3.963,1.594c2.196,0.909,3.443,1.487,3.443,1.487
				s-1.354-0.15-3.707-0.517c-1.177-0.187-2.611-0.401-4.244-0.707c-0.818-0.146-1.689-0.303-2.609-0.467
				c-0.916-0.177-1.854-0.453-2.848-0.692c-1.982-0.497-4.135-1.041-6.398-1.665c-2.259-0.643-4.584-1.504-7.011-2.337
				c-2.44-0.801-4.877-1.863-7.35-2.948c-1.23-0.555-2.501-1.049-3.721-1.67c-1.217-0.628-2.438-1.259-3.659-1.889
				c-1.203-0.666-2.454-1.239-3.613-1.979c-1.17-0.718-2.334-1.433-3.488-2.143c-0.576-0.358-1.148-0.714-1.719-1.069
				c-0.548-0.391-1.094-0.781-1.635-1.167c-1.079-0.778-2.145-1.546-3.193-2.303c-1.023-0.79-1.998-1.614-2.953-2.412
				c-0.953-0.801-1.899-1.564-2.738-2.412c-0.854-0.824-1.683-1.625-2.485-2.4c-0.751-0.827-1.478-1.626-2.175-2.393
				c-0.703-0.756-1.342-1.515-1.912-2.27c-0.568-0.756-1.146-1.431-1.612-2.136c-0.476-0.695-0.931-1.333-1.325-1.941
				c-0.369-0.625-0.71-1.199-1.018-1.717c-0.314-0.508-0.547-0.998-0.754-1.417c-0.209-0.416-0.384-0.771-0.508-1.072
				C106.206,209.302,106.102,208.979,106.102,208.979z"/>
		</g>
		<g>
			<path style="fill:#FFFFFF;" d="M217.076,233.909c0,0,0.057,0.323,0.222,0.864c0.153,0.542,0.425,1.303,0.873,2.136
				c0.196,0.431,0.511,0.838,0.792,1.29c0.35,0.403,0.682,0.855,1.129,1.219c0.393,0.426,0.934,0.691,1.415,1.042
				c0.267,0.136,0.55,0.25,0.823,0.379l0.415,0.189c0.144,0.05,0.296,0.08,0.444,0.121l0.887,0.248
				c0.293,0.092,0.609,0.084,0.91,0.131c0.305,0.038,0.605,0.075,0.904,0.112c0.3,0.024,0.602-0.001,0.896,0.002
				c0.588-0.03,1.166,0.041,1.707-0.059c0.546-0.06,1.063-0.116,1.538-0.169c0.483-0.03,0.909-0.154,1.298-0.212
				c0.389-0.072,0.728-0.135,1.006-0.186c0.561-0.1,0.887-0.145,0.887-0.145s-0.298,0.129-0.831,0.333
				c-0.269,0.1-0.593,0.222-0.967,0.362c-0.378,0.129-0.79,0.332-1.276,0.417c-0.482,0.108-1.006,0.225-1.559,0.348
				c-0.551,0.152-1.161,0.146-1.783,0.201c-0.313,0.015-0.629,0.057-0.952,0.048c-0.325-0.027-0.652-0.055-0.983-0.083
				c-0.328-0.045-0.668-0.034-0.995-0.126l-0.989-0.258c-0.162-0.049-0.33-0.086-0.49-0.146l-0.465-0.219
				c-0.307-0.149-0.62-0.286-0.916-0.446c-0.551-0.396-1.119-0.755-1.541-1.246c-0.482-0.432-0.801-0.969-1.139-1.441
				c-0.271-0.514-0.543-0.991-0.693-1.472c-0.194-0.463-0.286-0.915-0.381-1.306c-0.069-0.398-0.135-0.741-0.156-1.028
				C217.044,234.237,217.076,233.909,217.076,233.909z"/>
		</g>
		<path style="fill:#D83633;" d="M241.932,207.855"/>
		<path style="fill:#C8161D;" d="M145.645,171.666c-19.473,6.388-32.809,20.326-38.309,26.59
			c29.971,32.04,83.574,41.381,90.221,42.781c0.014-0.009,23.434-22.716,44.375-33.228L145.645,171.666z"/>
		<g>
			<g>
				<path style="fill:#E3482B;" d="M34.359,285.095c1.152,4.582,3.644,8.641,6.58,12.218c2.967,3.581,6.414,6.729,9.994,9.712
					c0.895,0.739,1.816,1.492,2.714,2.193l2.79,2.157c1.881,1.384,3.717,2.774,5.652,4.088c1.901,1.347,3.865,2.609,5.821,3.876
					l2.962,1.859l3,1.802c2.009,1.189,4.014,2.381,6.055,3.518l6.137,3.42c2.048,1.126,4.098,2.211,6.166,3.233
					c2.051,1.013,4.188,1.985,6.229,2.768l0.826,0.308c0.268,0.093,0.504,0.149,0.756,0.227c0.496,0.147,0.984,0.302,1.523,0.407
					c1.049,0.254,2.117,0.423,3.186,0.527c2.139,0.209,4.299,0.128,6.406-0.244c4.223-0.73,8.176-2.68,11.454-5.442l-0.198,0.187
					l18.068-19.124l9.079-9.519l9.097-9.502l-0.27,0.34c2.813-4.227,5.603-8.469,8.451-12.672l8.51-12.634
					c2.834-4.213,5.67-8.425,8.545-12.611l4.297-6.29l1.074-1.573l0.537-0.786l0.268-0.393l0.178-0.255l0.154-0.204
					c0.803-1.052,1.61-2.048,2.441-3.039c3.313-3.953,6.895-7.64,10.623-11.162c3.73-3.52,7.65-6.835,11.766-9.884
					c2.053-1.53,4.146-3.003,6.289-4.4c2.125-1.422,4.341-2.703,6.555-3.974c2.244-1.219,4.486-2.437,6.814-3.479
					c2.307-1.084,4.672-2.032,7.043-2.941c-2.289,1.105-4.557,2.243-6.752,3.509c-2.209,1.238-4.363,2.566-6.488,3.932
					c-4.209,2.795-8.28,5.784-12.135,9.031c-1.939,1.607-3.807,3.3-5.653,5.007c-1.853,1.704-3.644,3.471-5.396,5.273
					c-3.509,3.6-6.806,7.403-9.901,11.328c-0.768,0.98-1.527,1.982-2.234,2.972l-2.004,3.132l-4.087,6.427
					c-2.714,4.292-5.468,8.559-8.223,12.823l-8.259,12.8c-2.738,4.275-5.537,8.511-8.314,12.762l-0.113,0.175l-0.157,0.166
					l-9.034,9.562l-9.053,9.545l-18.195,19.004l-0.098,0.103l-0.102,0.083c-3.92,3.28-8.762,5.488-13.824,6.272
					c-2.529,0.395-5.109,0.439-7.641,0.139c-1.264-0.148-2.521-0.375-3.75-0.697c-0.611-0.134-1.241-0.34-1.867-0.543
					c-0.307-0.102-0.639-0.2-0.924-0.306l-0.819-0.324c-2.331-0.939-4.446-1.987-6.569-3.128c-2.109-1.132-4.176-2.315-6.209-3.522
					l-6.063-3.646c-2.024-1.221-4.023-2.491-6.012-3.772l-2.957-1.966l-2.921-2.025c-1.929-1.377-3.86-2.749-5.73-4.207
					c-1.887-1.421-3.748-2.934-5.564-4.45l-2.658-2.316c-0.91-0.8-1.765-1.587-2.637-2.398c-3.463-3.225-6.791-6.665-9.547-10.553
					c-1.375-1.939-2.629-3.977-3.597-6.148C35.467,289.691,34.736,287.417,34.359,285.095z"/>
			</g>
		</g>
		<path style="fill:#0B0D10;" d="M144.449,370.246c0,0-5.85-32.213,19.225-45.558c0,0,24.627-14.119,28.031,15.108L144.449,370.246z
			"/>
		<path style="fill:#373A3D;" d="M186.666,360.961c-5.869,14.745-18.469,23.576-28.15,19.726
			c-9.682-3.85-12.771-18.925-6.908-33.669c5.867-14.745,18.467-23.576,28.146-19.725
			C189.438,331.143,192.527,346.217,186.666,360.961z"/>
		<g>
			<path style="fill:#0B0D10;" d="M178.299,358.309c-3.066,7.708-9.656,12.325-14.715,10.312c-5.063-2.012-6.682-9.893-3.611-17.601
				c3.066-7.709,9.652-12.325,14.715-10.311C179.75,342.72,181.365,350.6,178.299,358.309z"/>
			<path style="fill:#D1D3D4;" d="M177.752,356.626c-2.711,6.814-8.533,10.895-13.008,9.116c-4.471-1.779-5.902-8.746-3.193-15.56
				c2.711-6.814,8.533-10.895,13.01-9.116C179.031,342.846,180.463,349.812,177.752,356.626z"/>
			<path style="fill:#D1D3D4;" d="M177.752,356.626c-2.711,6.814-8.533,10.895-13.008,9.116c-4.471-1.779-5.902-8.746-3.193-15.56
				c2.711-6.814,8.533-10.895,13.01-9.116C179.031,342.846,180.463,349.812,177.752,356.626z"/>
			<path style="fill:#808285;" d="M174.842,355.153c-1.813,4.558-5.549,7.35-8.342,6.24c-2.789-1.111-3.582-5.706-1.771-10.261
				c1.813-4.558,5.545-7.352,8.338-6.241C175.859,346.002,176.654,350.596,174.842,355.153z"/>
			<g>
				<path style="fill:#D1D3D4;" d="M170.578,343.079c0,0.512-0.412,0.928-0.926,0.928c-0.512,0-0.928-0.415-0.928-0.928
					c0-0.513,0.416-0.927,0.928-0.927C170.166,342.152,170.578,342.566,170.578,343.079z"/>
				<path style="fill:#FFFFFF;" d="M169.811,343.117c0.178,0.162,0.389,0.204,0.568,0.133c0.043-0.091,0.066-0.191,0.066-0.297
					c0-0.377-0.299-0.686-0.676-0.699C169.584,342.511,169.557,342.884,169.811,343.117z"/>
				<path style="fill:#BCBEC0;" d="M169.613,343.333c-0.291-0.347-0.299-0.816-0.078-1.173c-0.455,0.057-0.811,0.446-0.811,0.919
					c0,0.512,0.416,0.928,0.928,0.928c0.311,0,0.584-0.154,0.754-0.391C170.131,343.678,169.83,343.596,169.613,343.333z"/>
			</g>
			<g>
				<path style="fill:#D1D3D4;" d="M174.963,342.769c0,0.513-0.414,0.928-0.926,0.928c-0.514,0-0.932-0.415-0.932-0.928
					c0-0.512,0.418-0.927,0.932-0.927C174.549,341.842,174.963,342.257,174.963,342.769z"/>
				<path style="fill:#FFFFFF;" d="M174.193,342.807c0.178,0.163,0.389,0.205,0.57,0.133c0.043-0.09,0.066-0.191,0.066-0.296
					c0-0.378-0.299-0.686-0.676-0.699C173.967,342.201,173.941,342.575,174.193,342.807z"/>
				<path style="fill:#BCBEC0;" d="M173.994,343.023c-0.287-0.347-0.293-0.815-0.074-1.173c-0.461,0.058-0.814,0.446-0.814,0.919
					c0,0.513,0.418,0.928,0.932,0.928c0.309,0,0.588-0.154,0.752-0.391C174.516,343.369,174.213,343.285,173.994,343.023z"/>
			</g>
			<g>
				<path style="fill:#D1D3D4;" d="M177.92,346.353c0,0.511-0.416,0.927-0.928,0.927c-0.512,0-0.93-0.416-0.93-0.927
					c0-0.512,0.418-0.928,0.93-0.928C177.504,345.424,177.92,345.84,177.92,346.353z"/>
				<path style="fill:#FFFFFF;" d="M177.15,346.389c0.176,0.164,0.389,0.206,0.57,0.133c0.043-0.09,0.066-0.189,0.066-0.295
					c0-0.379-0.303-0.686-0.678-0.699C176.924,345.784,176.896,346.157,177.15,346.389z"/>
				<path style="fill:#BCBEC0;" d="M176.953,346.606c-0.289-0.347-0.297-0.815-0.078-1.174c-0.457,0.058-0.813,0.447-0.813,0.92
					c0,0.511,0.418,0.927,0.93,0.927c0.313,0,0.588-0.154,0.754-0.39C177.473,346.952,177.17,346.869,176.953,346.606z"/>
			</g>
			<g>
				<path style="fill:#D1D3D4;" d="M178.4,351.785c0,0.512-0.416,0.927-0.928,0.927c-0.51,0-0.926-0.416-0.926-0.927
					c0-0.513,0.416-0.928,0.926-0.928C177.984,350.857,178.4,351.272,178.4,351.785z"/>
				<path style="fill:#FFFFFF;" d="M177.633,351.821c0.178,0.163,0.387,0.206,0.566,0.134c0.045-0.09,0.068-0.19,0.068-0.296
					c0-0.379-0.299-0.686-0.676-0.7C177.404,351.216,177.375,351.59,177.633,351.821z"/>
				<path style="fill:#BCBEC0;" d="M177.43,352.039c-0.287-0.349-0.297-0.816-0.076-1.174c-0.453,0.058-0.807,0.446-0.807,0.92
					c0,0.512,0.416,0.927,0.926,0.927c0.313,0,0.588-0.154,0.756-0.391C177.953,352.384,177.652,352.301,177.43,352.039z"/>
			</g>
			<g>
				<path style="fill:#D1D3D4;" d="M176.992,356.185c0,0.513-0.414,0.928-0.928,0.928c-0.512,0-0.93-0.415-0.93-0.928
					c0-0.512,0.418-0.926,0.93-0.926C176.578,355.258,176.992,355.673,176.992,356.185z"/>
				<path style="fill:#FFFFFF;" d="M176.223,356.223c0.178,0.164,0.389,0.205,0.57,0.132c0.043-0.09,0.066-0.188,0.066-0.295
					c0-0.379-0.301-0.687-0.68-0.7C175.996,355.618,175.971,355.991,176.223,356.223z"/>
				<path style="fill:#BCBEC0;" d="M176.023,356.439c-0.287-0.347-0.295-0.816-0.076-1.174c-0.459,0.058-0.813,0.447-0.813,0.919
					c0,0.513,0.418,0.928,0.93,0.928c0.311,0,0.59-0.153,0.754-0.389C176.543,356.786,176.24,356.702,176.023,356.439z"/>
			</g>
			<g>
				<path style="fill:#D1D3D4;" d="M174.666,360.399c0,0.513-0.414,0.927-0.926,0.927c-0.518,0-0.93-0.414-0.93-0.927
					c0-0.513,0.412-0.927,0.93-0.927C174.252,359.472,174.666,359.887,174.666,360.399z"/>
				<path style="fill:#FFFFFF;" d="M173.898,360.438c0.176,0.161,0.387,0.203,0.568,0.131c0.043-0.09,0.066-0.19,0.066-0.295
					c0-0.379-0.301-0.687-0.674-0.699C173.67,359.831,173.643,360.205,173.898,360.438z"/>
				<path style="fill:#BCBEC0;" d="M173.697,360.654c-0.289-0.348-0.295-0.816-0.076-1.174c-0.459,0.057-0.811,0.448-0.811,0.92
					c0,0.513,0.412,0.927,0.93,0.927c0.311,0,0.584-0.154,0.752-0.39C174.215,361,173.918,360.915,173.697,360.654z"/>
			</g>
			<g>
				<path style="fill:#D1D3D4;" d="M170.578,363.409c0,0.512-0.412,0.928-0.926,0.928c-0.512,0-0.928-0.416-0.928-0.928
					c0-0.511,0.416-0.928,0.928-0.928C170.166,362.481,170.578,362.898,170.578,363.409z"/>
				<path style="fill:#FFFFFF;" d="M169.811,363.446c0.178,0.164,0.389,0.205,0.568,0.134c0.043-0.09,0.066-0.191,0.066-0.295
					c0-0.38-0.299-0.688-0.676-0.701C169.584,362.841,169.557,363.214,169.811,363.446z"/>
				<path style="fill:#BCBEC0;" d="M169.613,363.663c-0.291-0.347-0.299-0.814-0.078-1.174c-0.455,0.059-0.811,0.448-0.811,0.92
					c0,0.512,0.416,0.928,0.928,0.928c0.311,0,0.584-0.156,0.754-0.391C170.131,364.009,169.83,363.926,169.613,363.663z"/>
			</g>
			<g>
				<path style="fill:#D1D3D4;" d="M166.41,363.72c0,0.512-0.416,0.927-0.926,0.927c-0.512,0-0.932-0.414-0.932-0.927
					c0-0.512,0.42-0.928,0.932-0.928C165.994,362.792,166.41,363.208,166.41,363.72z"/>
				<path style="fill:#FFFFFF;" d="M165.641,363.756c0.178,0.163,0.393,0.205,0.572,0.133c0.041-0.09,0.066-0.19,0.066-0.294
					c0-0.38-0.301-0.688-0.678-0.701C165.412,363.151,165.389,363.524,165.641,363.756z"/>
				<path style="fill:#BCBEC0;" d="M165.441,363.974c-0.287-0.347-0.293-0.815-0.076-1.174c-0.457,0.058-0.813,0.447-0.813,0.92
					c0,0.512,0.42,0.927,0.932,0.927c0.311,0,0.588-0.154,0.754-0.39C165.963,364.319,165.66,364.235,165.441,363.974z"/>
			</g>
			<g>
				<path style="fill:#D1D3D4;" d="M163.402,360.708c0,0.512-0.414,0.927-0.928,0.927c-0.512,0-0.93-0.415-0.93-0.927
					c0-0.511,0.418-0.928,0.93-0.928C162.988,359.78,163.402,360.197,163.402,360.708z"/>
				<path style="fill:#FFFFFF;" d="M162.633,360.746c0.178,0.163,0.391,0.205,0.572,0.133c0.039-0.09,0.066-0.19,0.066-0.296
					c0-0.378-0.303-0.686-0.68-0.699C162.402,360.141,162.381,360.515,162.633,360.746z"/>
				<path style="fill:#BCBEC0;" d="M162.432,360.962c-0.287-0.346-0.291-0.815-0.072-1.173c-0.459,0.058-0.814,0.447-0.814,0.919
					c0,0.512,0.418,0.927,0.93,0.927c0.311,0,0.586-0.154,0.756-0.389C162.955,361.31,162.65,361.225,162.432,360.962z"/>
			</g>
			<g>
				<path style="fill:#D1D3D4;" d="M162.607,355.675c0,0.513-0.416,0.928-0.926,0.928c-0.514,0-0.93-0.415-0.93-0.928
					s0.416-0.927,0.93-0.927C162.191,354.747,162.607,355.162,162.607,355.675z"/>
				<path style="fill:#FFFFFF;" d="M161.838,355.712c0.178,0.163,0.393,0.205,0.57,0.132c0.041-0.089,0.066-0.189,0.066-0.295
					c0-0.378-0.299-0.687-0.678-0.7C161.609,355.106,161.586,355.48,161.838,355.712z"/>
				<path style="fill:#BCBEC0;" d="M161.639,355.929c-0.287-0.348-0.291-0.816-0.076-1.173c-0.457,0.058-0.811,0.446-0.811,0.919
					c0,0.513,0.416,0.928,0.93,0.928c0.311,0,0.586-0.154,0.754-0.391C162.16,356.275,161.857,356.191,161.639,355.929z"/>
			</g>
			<g>
				<path style="fill:#D1D3D4;" d="M163.949,350.652c0,0.512-0.416,0.927-0.928,0.927c-0.514,0-0.928-0.415-0.928-0.927
					c0-0.512,0.414-0.928,0.928-0.928C163.533,349.725,163.949,350.14,163.949,350.652z"/>
				<path style="fill:#FFFFFF;" d="M163.18,350.69c0.174,0.163,0.389,0.205,0.568,0.133c0.041-0.091,0.064-0.19,0.064-0.296
					c0-0.378-0.299-0.687-0.672-0.699C162.953,350.084,162.926,350.458,163.18,350.69z"/>
				<path style="fill:#BCBEC0;" d="M162.979,350.906c-0.289-0.346-0.293-0.814-0.076-1.173c-0.459,0.058-0.809,0.448-0.809,0.92
					c0,0.512,0.414,0.927,0.928,0.927c0.311,0,0.586-0.154,0.754-0.39C163.496,351.252,163.197,351.169,162.979,350.906z"/>
			</g>
			<g>
				<path style="fill:#D1D3D4;" d="M166.496,346.147c0,0.513-0.414,0.928-0.928,0.928c-0.51,0-0.926-0.415-0.926-0.928
					c0-0.512,0.416-0.927,0.926-0.927C166.082,345.22,166.496,345.635,166.496,346.147z"/>
				<path style="fill:#FFFFFF;" d="M165.729,346.185c0.178,0.164,0.391,0.205,0.566,0.134c0.045-0.09,0.068-0.19,0.068-0.296
					c0-0.378-0.301-0.686-0.672-0.699C165.502,345.58,165.475,345.954,165.729,346.185z"/>
				<path style="fill:#BCBEC0;" d="M165.529,346.401c-0.289-0.346-0.295-0.814-0.076-1.173c-0.457,0.059-0.811,0.447-0.811,0.919
					c0,0.513,0.416,0.928,0.926,0.928c0.313,0,0.59-0.154,0.754-0.39C166.053,346.748,165.748,346.664,165.529,346.401z"/>
			</g>
			<path style="fill:#E6E7E8;" d="M173.402,354.582c-1.295,3.26-3.969,5.261-5.967,4.465c-2-0.794-2.568-4.083-1.271-7.345
				c1.299-3.26,3.973-5.26,5.967-4.465C174.129,348.032,174.701,351.32,173.402,354.582z"/>
		</g>
	</g>
	<path style="fill:#0B0D10;" d="M324.943,256.829c0,0-5.848-32.212,19.227-45.558c0,0,24.627-14.118,28.029,15.109L324.943,256.829z
		"/>
	<path style="fill:#373A3D;" d="M367.16,247.545c-5.867,14.745-18.467,23.576-28.148,19.726c-9.682-3.85-12.773-18.925-6.908-33.669
		c5.865-14.745,18.467-23.576,28.145-19.725C369.93,217.727,373.023,232.801,367.16,247.545z"/>
	<g>
		<path style="fill:#0B0D10;" d="M358.791,244.893c-3.065,7.707-9.652,12.325-14.715,10.311c-5.061-2.012-6.678-9.893-3.609-17.601
			c3.066-7.709,9.654-12.325,14.715-10.312C360.244,229.304,361.861,237.184,358.791,244.893z"/>
		<path style="fill:#D1D3D4;" d="M358.246,243.21c-2.709,6.814-8.533,10.895-13.008,9.116c-4.473-1.779-5.9-8.747-3.193-15.559
			c2.713-6.814,8.535-10.896,13.01-9.116C359.527,229.43,360.959,236.395,358.246,243.21z"/>
		<path style="fill:#D1D3D4;" d="M358.246,243.21c-2.709,6.814-8.533,10.895-13.008,9.116c-4.473-1.779-5.9-8.747-3.193-15.559
			c2.713-6.814,8.535-10.896,13.01-9.116C359.527,229.43,360.959,236.395,358.246,243.21z"/>
		<path style="fill:#808285;" d="M355.338,241.737c-1.814,4.558-5.551,7.35-8.342,6.24c-2.791-1.111-3.584-5.706-1.773-10.261
			c1.813-4.558,5.545-7.352,8.34-6.241C356.354,232.586,357.147,237.18,355.338,241.737z"/>
		<g>
			<path style="fill:#D1D3D4;" d="M351.074,229.663c0,0.512-0.416,0.928-0.928,0.928c-0.51,0-0.926-0.416-0.926-0.928
				c0-0.513,0.416-0.928,0.926-0.928C350.658,228.735,351.074,229.15,351.074,229.663z"/>
			<path style="fill:#FFFFFF;" d="M350.305,229.701c0.18,0.162,0.389,0.205,0.57,0.133c0.041-0.091,0.066-0.191,0.066-0.298
				c0-0.376-0.301-0.686-0.676-0.699C350.078,229.095,350.053,229.468,350.305,229.701z"/>
			<path style="fill:#BCBEC0;" d="M350.105,229.917c-0.289-0.348-0.297-0.816-0.076-1.173c-0.455,0.057-0.809,0.446-0.809,0.919
				c0,0.512,0.416,0.928,0.926,0.928c0.313,0,0.584-0.154,0.754-0.391C350.627,230.262,350.324,230.179,350.105,229.917z"/>
		</g>
		<g>
			<path style="fill:#D1D3D4;" d="M355.459,229.353c0,0.513-0.418,0.928-0.928,0.928c-0.512,0-0.932-0.415-0.932-0.928
				c0-0.512,0.42-0.928,0.932-0.928C355.041,228.425,355.459,228.841,355.459,229.353z"/>
			<path style="fill:#FFFFFF;" d="M354.688,229.391c0.18,0.163,0.391,0.205,0.572,0.132c0.041-0.09,0.065-0.19,0.065-0.296
				c0-0.378-0.297-0.686-0.676-0.699C354.463,228.785,354.438,229.158,354.688,229.391z"/>
			<path style="fill:#BCBEC0;" d="M354.488,229.607c-0.287-0.347-0.291-0.814-0.072-1.173c-0.461,0.057-0.816,0.446-0.816,0.919
				c0,0.513,0.42,0.928,0.932,0.928c0.309,0,0.586-0.154,0.754-0.391C355.012,229.953,354.707,229.869,354.488,229.607z"/>
		</g>
		<g>
			<path style="fill:#D1D3D4;" d="M358.416,232.936c0,0.512-0.418,0.927-0.928,0.927c-0.514,0-0.932-0.416-0.932-0.927
				c0-0.512,0.418-0.928,0.932-0.928C357.998,232.008,358.416,232.424,358.416,232.936z"/>
			<path style="fill:#FFFFFF;" d="M357.645,232.973c0.178,0.164,0.391,0.205,0.57,0.133c0.043-0.09,0.066-0.189,0.066-0.295
				c0-0.379-0.301-0.686-0.678-0.7C357.42,232.368,357.393,232.741,357.645,232.973z"/>
			<path style="fill:#BCBEC0;" d="M357.447,233.189c-0.289-0.346-0.297-0.814-0.076-1.173c-0.459,0.058-0.814,0.447-0.814,0.92
				c0,0.512,0.418,0.927,0.932,0.927c0.311,0,0.586-0.154,0.754-0.39C357.967,233.537,357.664,233.453,357.447,233.189z"/>
		</g>
		<g>
			<path style="fill:#D1D3D4;" d="M358.897,238.369c0,0.512-0.418,0.927-0.93,0.927c-0.51,0-0.926-0.415-0.926-0.927
				c0-0.513,0.416-0.928,0.926-0.928C358.479,237.441,358.897,237.856,358.897,238.369z"/>
			<path style="fill:#FFFFFF;" d="M358.127,238.405c0.18,0.163,0.389,0.206,0.568,0.133c0.043-0.089,0.066-0.189,0.066-0.295
				c0-0.379-0.297-0.687-0.674-0.7C357.9,237.8,357.871,238.174,358.127,238.405z"/>
			<path style="fill:#BCBEC0;" d="M357.926,238.622c-0.287-0.348-0.297-0.816-0.076-1.173c-0.455,0.057-0.809,0.446-0.809,0.919
				c0,0.512,0.416,0.927,0.926,0.927c0.313,0,0.588-0.154,0.758-0.391C358.447,238.968,358.147,238.885,357.926,238.622z"/>
		</g>
		<g>
			<path style="fill:#D1D3D4;" d="M357.488,242.769c0,0.513-0.418,0.927-0.93,0.927c-0.512,0-0.93-0.415-0.93-0.927
				c0-0.512,0.418-0.927,0.93-0.927C357.07,241.842,357.488,242.257,357.488,242.769z"/>
			<path style="fill:#FFFFFF;" d="M356.717,242.807c0.18,0.164,0.391,0.205,0.572,0.132c0.043-0.09,0.066-0.189,0.066-0.294
				c0-0.379-0.301-0.688-0.68-0.7C356.49,242.202,356.467,242.575,356.717,242.807z"/>
			<path style="fill:#BCBEC0;" d="M356.52,243.023c-0.289-0.347-0.297-0.816-0.076-1.174c-0.459,0.058-0.814,0.447-0.814,0.919
				c0,0.513,0.418,0.927,0.93,0.927c0.313,0,0.588-0.153,0.756-0.389C357.039,243.37,356.734,243.286,356.52,243.023z"/>
		</g>
		<g>
			<path style="fill:#D1D3D4;" d="M355.162,246.983c0,0.513-0.416,0.927-0.928,0.927c-0.516,0-0.928-0.415-0.928-0.927
				c0-0.513,0.412-0.928,0.928-0.928C354.746,246.056,355.162,246.471,355.162,246.983z"/>
			<path style="fill:#FFFFFF;" d="M354.393,247.022c0.178,0.161,0.389,0.204,0.57,0.132c0.041-0.09,0.066-0.19,0.066-0.295
				c0-0.379-0.303-0.687-0.676-0.699C354.166,246.415,354.137,246.788,354.393,247.022z"/>
			<path style="fill:#BCBEC0;" d="M354.191,247.237c-0.287-0.348-0.295-0.815-0.076-1.174c-0.459,0.057-0.809,0.448-0.809,0.92
				c0,0.513,0.412,0.927,0.928,0.927c0.311,0,0.586-0.154,0.754-0.39C354.709,247.583,354.414,247.5,354.191,247.237z"/>
		</g>
		<g>
			<path style="fill:#D1D3D4;" d="M351.074,249.993c0,0.512-0.416,0.928-0.928,0.928c-0.51,0-0.926-0.416-0.926-0.928
				c0-0.511,0.416-0.928,0.926-0.928C350.658,249.065,351.074,249.482,351.074,249.993z"/>
			<path style="fill:#FFFFFF;" d="M350.305,250.031c0.18,0.163,0.389,0.205,0.57,0.133c0.041-0.09,0.066-0.191,0.066-0.295
				c0-0.38-0.301-0.688-0.676-0.701C350.078,249.425,350.053,249.798,350.305,250.031z"/>
			<path style="fill:#BCBEC0;" d="M350.105,250.247c-0.289-0.347-0.297-0.814-0.076-1.175c-0.455,0.06-0.809,0.448-0.809,0.921
				c0,0.512,0.416,0.928,0.926,0.928c0.313,0,0.584-0.155,0.754-0.391C350.627,250.593,350.324,250.51,350.105,250.247z"/>
		</g>
		<g>
			<path style="fill:#D1D3D4;" d="M346.904,250.303c0,0.513-0.416,0.928-0.926,0.928c-0.512,0-0.93-0.415-0.93-0.928
				c0-0.511,0.418-0.927,0.93-0.927C346.488,249.376,346.904,249.792,346.904,250.303z"/>
			<path style="fill:#FFFFFF;" d="M346.135,250.34c0.178,0.163,0.393,0.205,0.574,0.133c0.039-0.09,0.064-0.191,0.064-0.294
				c0-0.38-0.301-0.688-0.676-0.701C345.906,249.735,345.883,250.108,346.135,250.34z"/>
			<path style="fill:#BCBEC0;" d="M345.936,250.558c-0.287-0.347-0.293-0.816-0.074-1.174c-0.459,0.058-0.813,0.447-0.813,0.919
				c0,0.513,0.418,0.928,0.93,0.928c0.31,0,0.588-0.154,0.756-0.39C346.459,250.903,346.154,250.819,345.936,250.558z"/>
		</g>
		<g>
			<path style="fill:#D1D3D4;" d="M343.897,247.292c0,0.512-0.414,0.927-0.928,0.927c-0.51,0-0.93-0.415-0.93-0.927
				c0-0.511,0.42-0.928,0.93-0.928C343.483,246.364,343.897,246.781,343.897,247.292z"/>
			<path style="fill:#FFFFFF;" d="M343.127,247.33c0.178,0.163,0.393,0.205,0.572,0.133c0.041-0.09,0.066-0.19,0.066-0.296
				c0-0.378-0.303-0.686-0.678-0.698C342.898,246.725,342.873,247.099,343.127,247.33z"/>
			<path style="fill:#BCBEC0;" d="M342.926,247.546c-0.285-0.346-0.291-0.814-0.074-1.173c-0.459,0.058-0.813,0.448-0.813,0.919
				c0,0.512,0.42,0.927,0.93,0.927c0.313,0,0.588-0.153,0.756-0.389C343.449,247.893,343.147,247.809,342.926,247.546z"/>
		</g>
		<g>
			<path style="fill:#D1D3D4;" d="M343.102,242.259c0,0.513-0.414,0.927-0.926,0.927c-0.512,0-0.93-0.415-0.93-0.927
				s0.418-0.928,0.93-0.928C342.688,241.331,343.102,241.746,343.102,242.259z"/>
			<path style="fill:#FFFFFF;" d="M342.332,242.296c0.178,0.163,0.395,0.205,0.57,0.132c0.041-0.089,0.066-0.189,0.066-0.295
				c0-0.378-0.299-0.687-0.676-0.7C342.104,241.69,342.082,242.064,342.332,242.296z"/>
			<path style="fill:#BCBEC0;" d="M342.133,242.513c-0.287-0.347-0.293-0.816-0.076-1.173c-0.457,0.058-0.811,0.446-0.811,0.919
				c0,0.513,0.418,0.927,0.93,0.927c0.311,0,0.588-0.154,0.754-0.39C342.656,242.858,342.352,242.775,342.133,242.513z"/>
		</g>
		<g>
			<path style="fill:#D1D3D4;" d="M344.443,237.236c0,0.512-0.416,0.927-0.928,0.927c-0.514,0-0.93-0.415-0.93-0.927
				c0-0.512,0.416-0.928,0.93-0.928C344.027,236.309,344.443,236.724,344.443,237.236z"/>
			<path style="fill:#FFFFFF;" d="M343.676,237.274c0.172,0.162,0.389,0.205,0.568,0.133c0.039-0.091,0.063-0.191,0.063-0.296
				c0-0.378-0.299-0.686-0.672-0.699C343.447,236.668,343.422,237.042,343.676,237.274z"/>
			<path style="fill:#BCBEC0;" d="M343.475,237.489c-0.291-0.346-0.297-0.814-0.078-1.173c-0.459,0.057-0.811,0.448-0.811,0.92
				c0,0.512,0.416,0.927,0.93,0.927c0.313,0,0.586-0.154,0.754-0.39C343.992,237.837,343.691,237.753,343.475,237.489z"/>
		</g>
		<g>
			<path style="fill:#D1D3D4;" d="M346.992,232.731c0,0.513-0.416,0.928-0.928,0.928c-0.512,0-0.926-0.415-0.926-0.928
				c0-0.512,0.414-0.928,0.926-0.928C346.576,231.803,346.992,232.219,346.992,232.731z"/>
			<path style="fill:#FFFFFF;" d="M346.225,232.768c0.178,0.163,0.389,0.205,0.566,0.134c0.043-0.09,0.066-0.19,0.066-0.296
				c0-0.378-0.299-0.686-0.672-0.699C345.996,232.164,345.969,232.538,346.225,232.768z"/>
			<path style="fill:#BCBEC0;" d="M346.023,232.984c-0.287-0.346-0.295-0.814-0.076-1.173c-0.455,0.059-0.809,0.447-0.809,0.919
				c0,0.513,0.414,0.928,0.926,0.928c0.31,0,0.588-0.154,0.754-0.39C346.547,233.332,346.24,233.247,346.023,232.984z"/>
		</g>
		<path style="fill:#E6E7E8;" d="M353.897,241.165c-1.295,3.26-3.969,5.26-5.967,4.465c-1.998-0.794-2.566-4.083-1.27-7.345
			c1.297-3.261,3.971-5.26,5.965-4.465C354.625,234.616,355.193,237.904,353.897,241.165z"/>
	</g>
</g>
</svg>
